<svg width="16" height="15" viewBox="0 0 16 15" fill="none" xmlns="http://www.w3.org/2000/svg">
<path fill-rule="evenodd" clip-rule="evenodd" d="M13.7998 3.76201C14.2002 3.76201 14.6001 3.96196 14.7998 4.26201C15 4.562 15.1001 4.96196 14.8999 5.36199L13.2998 9.562C13.1001 10.162 12.3999 10.562 11.7998 10.562H5.5C4.8999 10.562 4.2002 10.062 4.1001 9.46196L2.6001 2.26201H0V0.661975H2.7002C3.2998 0.661975 4 1.16197 4.1001 1.76201L4.5 3.76201H13.7998ZM5.7002 9.062H11.8999L13.2002 5.46196H4.8999L5.7002 9.062ZM6.1001 11.562C5.2002 11.562 4.5 12.262 4.5 13.162C4.5 14.062 5.2002 14.762 6.1001 14.762C7 14.762 7.7002 14.062 7.7002 13.162C7.7002 12.262 7 11.562 6.1001 11.562ZM10.1001 13.162C10.1001 12.262 10.7998 11.562 11.7002 11.562C12.6001 11.562 13.2998 12.262 13.2998 13.162C13.2998 14.062 12.6001 14.762 11.7002 14.762C10.7998 14.762 10.1001 14.062 10.1001 13.162Z" fill="#8AD592"/>
</svg>
