<svg width="16" height="16" viewBox="0 0 16 16" fill="none" xmlns="http://www.w3.org/2000/svg">
<path fill-rule="evenodd" clip-rule="evenodd" d="M16 14.2851C16 13.2047 14.3708 12.6045 13.5477 12.2787C13.0504 12.0729 12.5359 11.8671 12.0386 11.6442C11.3698 11.3355 10.6838 10.9753 10.1865 10.4094C10.015 10.2036 9.91211 10.0665 9.91211 9.79207C9.91211 9.39764 10.015 9.00321 10.1007 8.62594C10.2379 8.04287 10.5295 7.5627 10.7696 7.01393C11.0439 6.32797 11.1468 5.60772 11.284 4.90461C11.3355 4.59593 11.4212 4.30439 11.4212 3.99571C11.4212 1.86924 10.3065 0 7.99143 0C5.67631 0 4.56163 1.86924 4.56163 3.99571C4.56163 4.30439 4.66452 4.59593 4.71597 4.90461C4.87031 5.60772 4.95606 6.32797 5.24759 7.01393C5.48767 7.5627 5.79636 8.04287 5.9164 8.62594C6.01929 9.00321 6.10504 9.39764 6.10504 9.79207C6.10504 10.0665 6.00214 10.2036 5.83065 10.4094C5.33333 10.9753 4.64737 11.3355 3.97856 11.6442C3.48124 11.8842 2.96677 12.0729 2.46945 12.2787C1.6463 12.6217 0 13.2047 0 14.2851V16H16V15.0054V14.2851Z" fill="#7E7E7E"/>
</svg>
